# xmcd CD database file
#
# Track frame offsets:
#	183
#	27173
#	50015
#	69113
#	89570
#	102853
#	131693
#	147070
#	171898
#
# Disc length: 2514 seconds
#
# Revision: 0
# Processed by: cddbd v1.4b42PL1 Copyright (c) Steve Scherf et al.
# Submitted via: CDex 1.40Beta8
#
DISCID=7609d009
DTITLE=Mississippi Fred McDowell - Live At The Mayfair Hotel
DYEAR=1969
DGENRE=Blues
TTITLE0=61 Highway
TTITLE1=Red Cross Store
TTITLE2=When I Lay My Burden Down
TTITLE3=Evil Hearted Woman
TTITLE4=I Asked For Whiskey, She Gave Me Gasoline
TTITLE5=Standing At The Burying Ground
TTITLE6=Glory Hallelujah
TTITLE7=Write Me A Few Of Your Lines
TTITLE8=My Baby Done Me Wrong
EXTD=YEAR: 1969 ID3G: 0
EXTT0=
EXTT1=
EXTT2=
EXTT3=
EXTT4=
EXTT5=
EXTT6=
EXTT7=
EXTT8=
PLAYORDER=
